<svg xmlns="http://www.w3.org/2000/svg" viewBox="0 0 460.6 460.6">
  <!-- PEPE currency glyph only; inherits currentColor so it can be white on colored bg -->
  <path fill="currentColor" d="M363.313,204.043c-4.854,29.719-18.681,50.006-41.479,60.86c-10.275,4.892-20.082,7.546-29.38,7.97 c-12.479,0.507-30.858-1.219-55.124-5.179l-34.276-5.593l-16.042,98.2l-52.559-8.584l26.452-161.958l-26.989-4.409l5.398-33.026 l26.988,4.408l10.674-65.352l84.354,13.777c31.838,5.205,52.461,9.914,61.869,14.116c16.314,7.288,27.959,18.918,34.957,34.887 C364.617,168.953,366.332,185.58,363.313,204.043z M309.047,195.905c1.479-9.117,0.07-17.243-4.227-24.392 c-4.299-7.137-10.82-12.278-19.551-15.409c-6.195-2.222-18.705-4.879-37.531-7.949l-25.393-4.15l-3.479,21.313l46.701,7.631 l-5.391,33.026l-46.708-7.633l-3.188,19.54l28.764,4.696c15.39,2.512,26.01,3.695,31.867,3.563 c12.57-0.256,22.212-3.907,28.957-10.947C304.705,210.154,307.766,203.724,309.047,195.905z"/>
</svg>
